<svg width="90" height="90" viewBox="0 0 90 90" fill="none" xmlns="http://www.w3.org/2000/svg">
<path d="M57.6699 20.3365C57.6699 31.5681 56.9035 40.6731 45.9443 40.6731C34.985 40.6731 29.7087 31.5681 29.7087 20.3365C29.7087 9.10498 34.985 0 45.9443 0C56.9035 0 57.6699 9.10498 57.6699 20.3365Z" fill="#FF1010"/>
<path d="M55.0485 25.9615C55.0485 34.5644 54.4498 41.5384 45.8879 41.5384C37.326 41.5384 33.2039 34.5644 33.2039 25.9615C33.2039 17.3586 37.326 10.3846 45.8879 10.3846C54.4498 10.3846 55.0485 17.3586 55.0485 25.9615Z" fill="white"/>
<path d="M55.0485 69.6635C55.0485 80.895 54.2821 90 43.3229 90C32.3637 90 27.0874 80.895 27.0874 69.6635C27.0874 58.4319 32.3637 49.3269 43.3229 49.3269C54.2821 49.3269 55.0485 58.4319 55.0485 69.6635Z" fill="#FF1010"/>
<path d="M52.4272 64.0385C52.4272 72.6414 51.8524 79.6154 43.633 79.6154C35.4135 79.6154 31.4563 72.6414 31.4563 64.0385C31.4563 55.4356 35.4135 48.4615 43.633 48.4615C51.8524 48.4615 52.4272 55.4356 52.4272 64.0385Z" fill="white"/>
<path d="M72.3988 58.285C78.0691 68.0119 82.0021 76.2765 72.5111 81.7035C63.0201 87.1304 53.854 81.858 48.1837 72.1312C42.5134 62.4044 42.4862 51.9065 51.9771 46.4795C61.4681 41.0526 66.7285 48.5582 72.3988 58.285Z" fill="#FF1010"/>
<path d="M66.076 55.2193C70.4378 62.7014 73.4631 69.0589 66.1624 73.2334C58.8617 77.408 51.8108 73.3523 47.449 65.8702C43.0873 58.388 43.0663 50.3127 50.367 46.1381C57.6677 41.9636 61.7142 47.7371 66.076 55.2193Z" fill="white"/>
<path d="M53.5568 21.6674C61.5758 13.7255 68.6184 7.82402 76.3678 15.4988C84.1171 23.1737 81.3473 33.3069 73.3283 41.2488C65.3093 49.1907 55.0777 51.9339 47.3283 44.259C39.579 36.5842 45.5377 29.6093 53.5568 21.6674Z" fill="#FF1010"/>
<path d="M51.5821 27.0518C57.7506 20.9427 63.168 16.4031 69.129 22.3068C75.0901 28.2105 72.9595 36.0053 66.791 42.1145C60.6225 48.2236 52.752 50.3338 46.791 44.43C40.83 38.5263 45.4136 33.161 51.5821 27.0518Z" fill="white"/>
<path d="M43.7154 18.1885C51.4482 25.8469 57.1943 32.5729 49.7215 39.9738C42.2488 47.3746 32.3824 44.7294 24.6497 37.071C16.9169 29.4126 14.246 19.641 21.7187 12.2402C29.1914 4.8393 35.9827 10.5301 43.7154 18.1885Z" fill="#FF1010"/>
<path d="M44.0119 24.3758C49.9602 30.2669 54.3802 35.4407 48.6319 41.1337C42.8837 46.8267 35.2942 44.7919 29.3459 38.9008C23.3976 33.0097 21.343 25.4931 27.0913 19.8001C32.8395 14.1072 38.0636 18.4847 44.0119 24.3758Z" fill="white"/>
<path d="M37.4362 68.23C29.7034 75.8885 22.9121 81.5793 15.4394 74.1784C7.96668 66.7775 10.6376 57.006 18.3704 49.3476C26.1032 41.6892 35.9695 39.0439 43.4423 46.4448C50.915 53.8456 45.1689 60.5716 37.4362 68.23Z" fill="#FF1010"/>
<path d="M39.1817 62.8693C33.2334 68.7604 28.0093 73.1379 22.2611 67.4449C16.5128 61.7519 18.5674 54.2354 24.5157 48.3443C30.464 42.4532 38.0535 40.4184 43.8017 46.1114C49.55 51.8043 45.13 56.9782 39.1817 62.8693Z" fill="white"/>
<path d="M29.678 31.1146C38.8345 36.3503 45.8983 41.2106 40.7643 50.0173C35.6304 58.8241 25.7359 58.8197 16.5793 53.584C7.42282 48.3483 2.47173 39.864 7.60566 31.0572C12.7396 22.2505 20.5215 25.8789 29.678 31.1146Z" fill="#FF1010"/>
<path d="M33.2138 34.319C40.2573 38.3464 45.691 42.0851 41.7418 48.8595C37.7926 55.6339 30.1814 55.6305 23.138 51.6031C16.0945 47.5756 12.286 41.0492 16.2351 34.2748C20.1843 27.5004 26.1704 30.2915 33.2138 34.319Z" fill="white"/>
<path d="M68.1553 58.8462C80.2198 58.8462 90 58.0634 90 46.8704C90 35.6773 80.2198 30.2885 68.1553 30.2885C56.0909 30.2885 46.3107 35.6773 46.3107 46.8704C46.3107 58.0634 56.0909 58.8462 68.1553 58.8462Z" fill="#FF1010"/>
<path d="M62.9126 55.3846C72.0816 55.3846 79.5146 54.7916 79.5146 46.312C79.5146 37.8325 72.0816 33.75 62.9126 33.75C53.7436 33.75 46.3107 37.8325 46.3107 46.312C46.3107 54.7916 53.7436 55.3846 62.9126 55.3846Z" fill="white"/>
<path d="M51.5534 47.5962C51.5534 53.8094 51.1223 58.8462 44.9577 58.8462C38.7932 58.8462 35.8252 53.8094 35.8252 47.5962C35.8252 41.383 38.7932 36.3462 44.9577 36.3462C51.1223 36.3462 51.5534 41.383 51.5534 47.5962Z" fill="#FFF9F9"/>
<path d="M49.4545 47.611C49.4545 52.2354 49.1356 55.9843 44.5748 55.9843C40.014 55.9843 37.8182 52.2354 37.8182 47.611C37.8182 42.9866 40.014 39.2378 44.5748 39.2378C49.1356 39.2378 49.4545 42.9866 49.4545 47.611Z" fill="#FF1010"/>
</svg>
